<?xml version="1.0" encoding="utf-8" standalone="no"?>
<!DOCTYPE svg PUBLIC "-//W3C//DTD SVG 1.1//EN"
  "http://www.w3.org/Graphics/SVG/1.1/DTD/svg11.dtd">
<svg xmlns:xlink="http://www.w3.org/1999/xlink" width="584.877656pt" height="232.56957pt" viewBox="0 0 584.877656 232.56957" xmlns="http://www.w3.org/2000/svg" version="1.1">
 <metadata>
  <rdf:RDF xmlns:dc="http://purl.org/dc/elements/1.1/" xmlns:cc="http://creativecommons.org/ns#" xmlns:rdf="http://www.w3.org/1999/02/22-rdf-syntax-ns#">
   <cc:Work>
    <dc:type rdf:resource="http://purl.org/dc/dcmitype/StillImage"/>
    <dc:date>2026-08-30T00:38:54.038906</dc:date>
    <dc:format>image/svg+xml</dc:format>
    <dc:creator>
     <cc:Agent>
      <dc:title>Matplotlib v3.11.1, https://matplotlib.org/</dc:title>
     </cc:Agent>
    </dc:creator>
   </cc:Work>
  </rdf:RDF>
 </metadata>
 <defs>
  <style type="text/css">*{stroke-linejoin: round; stroke-linecap: butt}</style>
 </defs>
 <g id="figure_1">
  <g id="patch_1">
   <path d="M 0 232.56957 
L 584.877656 232.56957 
L 584.877656 0 
L 0 0 
z
" style="fill: #ffffff"/>
  </g>
  <g id="axes_1">
   <g id="patch_2">
    <path d="M 34.131953 194.116836 
L 283.377656 194.116836 
L 283.377656 22.132129 
L 34.131953 22.132129 
z
" style="fill: #ffffff"/>
   </g>
   <g id="matplotlib.axis_1">
    <g id="xtick_1">
     <g id="line2d_1">
      <path d="M 45.461303 194.116836 
L 45.461303 22.132129 
" clip-path="url(#p52c83b6d26)" style="fill: none; stroke: #d9d9d9; stroke-width: 0.5; stroke-linecap: square"/>
     </g>
     <g id="line2d_2">
      <defs>
       <path id="m6cdca2b017" d="M 0 0 
L 0 3.5 
" style="stroke: #000000; stroke-width: 0.8"/>
      </defs>
      <g>
       <use xlink:href="#m6cdca2b017" x="45.461303" y="194.116836" style="stroke: #000000; stroke-width: 0.8"/>
      </g>
     </g>
     <g id="text_1">
      <!-- 0 -->
      <g transform="translate(42.822475 208.424941) scale(0.09 -0.09)">
       <defs>
        <path id="MicrosoftYaHei-16" d="M 284 2325 
Q 284 3606 709 4264 
Q 1134 4922 1941 4922 
Q 3478 4922 3478 2441 
Q 3478 1216 3045 567 
Q 2613 -81 1831 -81 
Q 1094 -81 689 534 
Q 284 1150 284 2325 
z
M 909 2353 
Q 909 425 1888 425 
Q 2850 425 2850 2384 
Q 2850 4413 1906 4413 
Q 909 4413 909 2353 
z
" transform="scale(0.015625)"/>
       </defs>
       <use xlink:href="#MicrosoftYaHei-16"/>
      </g>
     </g>
    </g>
    <g id="xtick_2">
     <g id="line2d_3">
      <path d="M 76.93172 194.116836 
L 76.93172 22.132129 
" clip-path="url(#p52c83b6d26)" style="fill: none; stroke: #d9d9d9; stroke-width: 0.5; stroke-linecap: square"/>
     </g>
     <g id="line2d_4">
      <g>
       <use xlink:href="#m6cdca2b017" x="76.93172" y="194.116836" style="stroke: #000000; stroke-width: 0.8"/>
      </g>
     </g>
     <g id="text_2">
      <!-- 50 -->
      <g transform="translate(71.654064 208.424941) scale(0.09 -0.09)">
       <defs>
        <path id="MicrosoftYaHei-1b" d="M 3294 1494 
Q 3294 784 2823 350 
Q 2353 -84 1559 -84 
Q 878 -84 544 119 
L 544 744 
Q 1034 425 1544 425 
Q 2050 425 2361 704 
Q 2672 984 2672 1447 
Q 2672 1909 2348 2167 
Q 2025 2425 1434 2425 
Q 978 2425 613 2384 
L 791 4841 
L 3053 4841 
L 3053 4303 
L 1306 4303 
L 1206 2931 
L 1647 2950 
Q 2416 2950 2855 2567 
Q 3294 2184 3294 1494 
z
" transform="scale(0.015625)"/>
       </defs>
       <use xlink:href="#MicrosoftYaHei-1b"/>
       <use xlink:href="#MicrosoftYaHei-16" transform="translate(58.640625 0)"/>
      </g>
     </g>
    </g>
    <g id="xtick_3">
     <g id="line2d_5">
      <path d="M 108.402137 194.116836 
L 108.402137 22.132129 
" clip-path="url(#p52c83b6d26)" style="fill: none; stroke: #d9d9d9; stroke-width: 0.5; stroke-linecap: square"/>
     </g>
     <g id="line2d_6">
      <g>
       <use xlink:href="#m6cdca2b017" x="108.402137" y="194.116836" style="stroke: #000000; stroke-width: 0.8"/>
      </g>
     </g>
     <g id="text_3">
      <!-- 100 -->
      <g transform="translate(100.485653 208.424941) scale(0.09 -0.09)">
       <defs>
        <path id="MicrosoftYaHei-17" d="M 1781 0 
L 1781 4141 
Q 1638 3997 1295 3819 
Q 953 3641 663 3569 
L 663 4169 
Q 1047 4275 1484 4508 
Q 1922 4741 2156 4947 
L 2388 4947 
L 2388 0 
L 1781 0 
z
" transform="scale(0.015625)"/>
       </defs>
       <use xlink:href="#MicrosoftYaHei-17"/>
       <use xlink:href="#MicrosoftYaHei-16" transform="translate(58.640625 0)"/>
       <use xlink:href="#MicrosoftYaHei-16" transform="translate(117.28125 0)"/>
      </g>
     </g>
    </g>
    <g id="xtick_4">
     <g id="line2d_7">
      <path d="M 139.872554 194.116836 
L 139.872554 22.132129 
" clip-path="url(#p52c83b6d26)" style="fill: none; stroke: #d9d9d9; stroke-width: 0.5; stroke-linecap: square"/>
     </g>
     <g id="line2d_8">
      <g>
       <use xlink:href="#m6cdca2b017" x="139.872554" y="194.116836" style="stroke: #000000; stroke-width: 0.8"/>
      </g>
     </g>
     <g id="text_4">
      <!-- 150 -->
      <g transform="translate(131.95607 208.424941) scale(0.09 -0.09)">
       <use xlink:href="#MicrosoftYaHei-17"/>
       <use xlink:href="#MicrosoftYaHei-1b" transform="translate(58.640625 0)"/>
       <use xlink:href="#MicrosoftYaHei-16" transform="translate(117.28125 0)"/>
      </g>
     </g>
    </g>
    <g id="xtick_5">
     <g id="line2d_9">
      <path d="M 171.342972 194.116836 
L 171.342972 22.132129 
" clip-path="url(#p52c83b6d26)" style="fill: none; stroke: #d9d9d9; stroke-width: 0.5; stroke-linecap: square"/>
     </g>
     <g id="line2d_10">
      <g>
       <use xlink:href="#m6cdca2b017" x="171.342972" y="194.116836" style="stroke: #000000; stroke-width: 0.8"/>
      </g>
     </g>
     <g id="text_5">
      <!-- 200 -->
      <g transform="translate(163.426487 208.424941) scale(0.09 -0.09)">
       <defs>
        <path id="MicrosoftYaHei-18" d="M 2666 3572 
Q 2666 3963 2419 4186 
Q 2172 4409 1747 4409 
Q 1447 4409 1140 4256 
Q 834 4103 569 3819 
L 569 4413 
Q 806 4659 1107 4790 
Q 1409 4922 1816 4922 
Q 2472 4922 2872 4570 
Q 3272 4219 3272 3619 
Q 3272 3084 3026 2693 
Q 2781 2303 2188 1894 
Q 1581 1475 1376 1294 
Q 1172 1113 1090 947 
Q 1009 781 1009 544 
L 3416 544 
L 3416 0 
L 372 0 
L 372 241 
Q 372 659 486 951 
Q 600 1244 862 1520 
Q 1125 1797 1681 2184 
Q 2250 2584 2458 2886 
Q 2666 3188 2666 3572 
z
" transform="scale(0.015625)"/>
       </defs>
       <use xlink:href="#MicrosoftYaHei-18"/>
       <use xlink:href="#MicrosoftYaHei-16" transform="translate(58.640625 0)"/>
       <use xlink:href="#MicrosoftYaHei-16" transform="translate(117.28125 0)"/>
      </g>
     </g>
    </g>
    <g id="xtick_6">
     <g id="line2d_11">
      <path d="M 202.813389 194.116836 
L 202.813389 22.132129 
" clip-path="url(#p52c83b6d26)" style="fill: none; stroke: #d9d9d9; stroke-width: 0.5; stroke-linecap: square"/>
     </g>
     <g id="line2d_12">
      <g>
       <use xlink:href="#m6cdca2b017" x="202.813389" y="194.116836" style="stroke: #000000; stroke-width: 0.8"/>
      </g>
     </g>
     <g id="text_6">
      <!-- 250 -->
      <g transform="translate(194.896904 208.424941) scale(0.09 -0.09)">
       <use xlink:href="#MicrosoftYaHei-18"/>
       <use xlink:href="#MicrosoftYaHei-1b" transform="translate(58.640625 0)"/>
       <use xlink:href="#MicrosoftYaHei-16" transform="translate(117.28125 0)"/>
      </g>
     </g>
    </g>
    <g id="xtick_7">
     <g id="line2d_13">
      <path d="M 234.283806 194.116836 
L 234.283806 22.132129 
" clip-path="url(#p52c83b6d26)" style="fill: none; stroke: #d9d9d9; stroke-width: 0.5; stroke-linecap: square"/>
     </g>
     <g id="line2d_14">
      <g>
       <use xlink:href="#m6cdca2b017" x="234.283806" y="194.116836" style="stroke: #000000; stroke-width: 0.8"/>
      </g>
     </g>
     <g id="text_7">
      <!-- 300 -->
      <g transform="translate(226.367321 208.424941) scale(0.09 -0.09)">
       <defs>
        <path id="MicrosoftYaHei-19" d="M 447 809 
Q 944 425 1569 425 
Q 2069 425 2361 670 
Q 2653 916 2653 1328 
Q 2653 2247 1338 2247 
L 934 2247 
L 934 2753 
L 1319 2753 
Q 2484 2753 2484 3616 
Q 2484 4413 1594 4413 
Q 1084 4413 634 4069 
L 634 4647 
Q 1109 4922 1744 4922 
Q 2363 4922 2738 4598 
Q 3113 4275 3113 3759 
Q 3113 2809 2144 2538 
L 2144 2525 
Q 2669 2469 2973 2155 
Q 3278 1841 3278 1372 
Q 3278 719 2808 319 
Q 2338 -81 1556 -81 
Q 869 -81 447 175 
L 447 809 
z
" transform="scale(0.015625)"/>
       </defs>
       <use xlink:href="#MicrosoftYaHei-19"/>
       <use xlink:href="#MicrosoftYaHei-16" transform="translate(58.640625 0)"/>
       <use xlink:href="#MicrosoftYaHei-16" transform="translate(117.28125 0)"/>
      </g>
     </g>
    </g>
    <g id="xtick_8">
     <g id="line2d_15">
      <path d="M 265.754223 194.116836 
L 265.754223 22.132129 
" clip-path="url(#p52c83b6d26)" style="fill: none; stroke: #d9d9d9; stroke-width: 0.5; stroke-linecap: square"/>
     </g>
     <g id="line2d_16">
      <g>
       <use xlink:href="#m6cdca2b017" x="265.754223" y="194.116836" style="stroke: #000000; stroke-width: 0.8"/>
      </g>
     </g>
     <g id="text_8">
      <!-- 350 -->
      <g transform="translate(257.837738 208.424941) scale(0.09 -0.09)">
       <use xlink:href="#MicrosoftYaHei-19"/>
       <use xlink:href="#MicrosoftYaHei-1b" transform="translate(58.640625 0)"/>
       <use xlink:href="#MicrosoftYaHei-16" transform="translate(117.28125 0)"/>
      </g>
     </g>
    </g>
    <g id="text_9">
     <!-- Heading (degree) -->
     <g transform="translate(116.912617 222.82582) scale(0.1 -0.1)">
      <defs>
       <path id="MicrosoftYaHei-2e" d="M 4325 0 
L 3700 0 
L 3700 2181 
L 1250 2181 
L 1250 0 
L 625 0 
L 625 4841 
L 1250 4841 
L 1250 2738 
L 3700 2738 
L 3700 4841 
L 4325 4841 
L 4325 0 
z
" transform="scale(0.015625)"/>
       <path id="MicrosoftYaHei-4b" d="M 3363 1572 
L 944 1572 
Q 959 1019 1246 717 
Q 1534 416 2050 416 
Q 2631 416 3116 788 
L 3116 241 
Q 2659 -81 1906 -81 
Q 1156 -81 736 394 
Q 316 869 316 1713 
Q 316 2506 777 3022 
Q 1238 3538 1922 3538 
Q 2600 3538 2981 3102 
Q 3363 2666 3363 1881 
L 3363 1572 
z
M 2750 2063 
Q 2747 2531 2528 2787 
Q 2309 3044 1913 3044 
Q 1547 3044 1280 2772 
Q 1013 2500 944 2063 
L 2750 2063 
z
" transform="scale(0.015625)"/>
       <path id="MicrosoftYaHei-47" d="M 628 3216 
Q 1144 3538 1819 3538 
Q 3069 3538 3069 2225 
L 3069 0 
L 2463 0 
L 2463 534 
L 2447 534 
Q 2088 -81 1388 -81 
Q 884 -81 587 191 
Q 291 463 291 925 
Q 291 1894 1438 2053 
L 2463 2197 
Q 2463 3044 1763 3044 
Q 1141 3044 628 2625 
L 628 3216 
z
M 1653 1625 
Q 1228 1569 1067 1412 
Q 906 1256 906 975 
Q 906 728 1081 572 
Q 1256 416 1544 416 
Q 1944 416 2203 697 
Q 2463 978 2463 1403 
L 2463 1734 
L 1653 1625 
z
" transform="scale(0.015625)"/>
       <path id="MicrosoftYaHei-4a" d="M 3547 0 
L 2934 0 
L 2934 575 
L 2922 575 
Q 2544 -81 1747 -81 
Q 1091 -81 703 386 
Q 316 853 316 1647 
Q 316 2503 753 3020 
Q 1191 3538 1897 3538 
Q 2603 3538 2922 2988 
L 2934 2988 
L 2934 5116 
L 3547 5116 
L 3547 0 
z
M 2938 2056 
Q 2938 2472 2664 2751 
Q 2391 3031 1991 3031 
Q 1503 3031 1222 2667 
Q 941 2303 941 1675 
Q 941 1097 1211 761 
Q 1481 425 1931 425 
Q 2375 425 2656 754 
Q 2938 1084 2938 1575 
L 2938 2056 
z
" transform="scale(0.015625)"/>
       <path id="MicrosoftYaHei-4f" d="M 472 4675 
Q 472 4838 583 4948 
Q 694 5059 856 5059 
Q 1022 5059 1136 4950 
Q 1250 4841 1250 4675 
Q 1250 4513 1136 4405 
Q 1022 4297 856 4297 
Q 691 4297 581 4405 
Q 472 4513 472 4675 
z
M 544 0 
L 544 3456 
L 1156 3456 
L 1156 0 
L 544 0 
z
" transform="scale(0.015625)"/>
       <path id="MicrosoftYaHei-54" d="M 3469 0 
L 2859 0 
L 2859 1966 
Q 2859 3031 2081 3031 
Q 1678 3031 1418 2731 
Q 1159 2431 1159 1972 
L 1159 0 
L 547 0 
L 547 3456 
L 1159 3456 
L 1159 2884 
L 1172 2884 
Q 1563 3538 2306 3538 
Q 2875 3538 3172 3173 
Q 3469 2809 3469 2113 
L 3469 0 
z
" transform="scale(0.015625)"/>
       <path id="MicrosoftYaHei-4d" d="M 3547 291 
Q 3547 -1628 1684 -1628 
Q 1041 -1628 566 -1388 
L 566 -797 
Q 1144 -1119 1675 -1119 
Q 2934 -1119 2934 206 
L 2934 572 
L 2922 572 
Q 2528 -81 1747 -81 
Q 1097 -81 706 384 
Q 316 850 316 1619 
Q 316 2503 747 3020 
Q 1178 3538 1897 3538 
Q 2588 3538 2922 2988 
L 2934 2988 
L 2934 3456 
L 3547 3456 
L 3547 291 
z
M 2934 2056 
Q 2938 2456 2666 2743 
Q 2394 3031 1997 3031 
Q 1497 3031 1219 2664 
Q 941 2297 941 1656 
Q 941 1106 1209 765 
Q 1478 425 1922 425 
Q 2369 425 2653 750 
Q 2938 1075 2934 1575 
L 2934 2056 
z
" transform="scale(0.015625)"/>
       <path id="MicrosoftYaHei-3" transform="scale(0.015625)"/>
       <path id="MicrosoftYaHei-e" d="M 1531 -1100 
Q 478 100 478 1847 
Q 478 3594 1531 4841 
L 2072 4841 
Q 1016 3544 1016 1853 
Q 1016 166 2066 -1100 
L 1531 -1100 
z
" transform="scale(0.015625)"/>
       <path id="MicrosoftYaHei-58" d="M 2400 2850 
Q 2247 2959 1978 2959 
Q 1622 2959 1390 2626 
Q 1159 2294 1159 1750 
L 1159 0 
L 547 0 
L 547 3456 
L 1159 3456 
L 1159 2753 
L 1172 2753 
Q 1434 3516 2078 3516 
Q 2288 3516 2400 3469 
L 2400 2850 
z
" transform="scale(0.015625)"/>
       <path id="MicrosoftYaHei-f" d="M 78 -1100 
Q 1131 163 1131 1853 
Q 1131 3547 72 4841 
L 616 4841 
Q 1672 3603 1672 1847 
Q 1672 91 616 -1100 
L 78 -1100 
z
" transform="scale(0.015625)"/>
      </defs>
      <use xlink:href="#MicrosoftYaHei-2e"/>
      <use xlink:href="#MicrosoftYaHei-4b" transform="translate(77.34375 0)"/>
      <use xlink:href="#MicrosoftYaHei-47" transform="translate(134.078125 0)"/>
      <use xlink:href="#MicrosoftYaHei-4a" transform="translate(189.359375 0)"/>
      <use xlink:href="#MicrosoftYaHei-4f" transform="translate(253.328125 0)"/>
      <use xlink:href="#MicrosoftYaHei-54" transform="translate(279.9375 0)"/>
      <use xlink:href="#MicrosoftYaHei-4d" transform="translate(341.5625 0)"/>
      <use xlink:href="#MicrosoftYaHei-3" transform="translate(405.53125 0)"/>
      <use xlink:href="#MicrosoftYaHei-e" transform="translate(435.125 0)"/>
      <use xlink:href="#MicrosoftYaHei-4a" transform="translate(468.53125 0)"/>
      <use xlink:href="#MicrosoftYaHei-4b" transform="translate(532.5 0)"/>
      <use xlink:href="#MicrosoftYaHei-4d" transform="translate(589.234375 0)"/>
      <use xlink:href="#MicrosoftYaHei-58" transform="translate(653.203125 0)"/>
      <use xlink:href="#MicrosoftYaHei-4b" transform="translate(689.96875 0)"/>
      <use xlink:href="#MicrosoftYaHei-4b" transform="translate(746.703125 0)"/>
      <use xlink:href="#MicrosoftYaHei-f" transform="translate(803.4375 0)"/>
     </g>
    </g>
   </g>
   <g id="matplotlib.axis_2">
    <g id="ytick_1">
     <g id="line2d_17">
      <path d="M 34.131953 186.299349 
L 283.377656 186.299349 
" clip-path="url(#p52c83b6d26)" style="fill: none; stroke: #d9d9d9; stroke-width: 0.5; stroke-linecap: square"/>
     </g>
     <g id="line2d_18">
      <defs>
       <path id="m06237ab109" d="M 0 0 
L -3.5 0 
" style="stroke: #000000; stroke-width: 0.8"/>
      </defs>
      <g>
       <use xlink:href="#m06237ab109" x="34.131953" y="186.299349" style="stroke: #000000; stroke-width: 0.8"/>
      </g>
     </g>
     <g id="text_10">
      <!-- 0 -->
      <g transform="translate(21.854297 189.953402) scale(0.09 -0.09)">
       <use xlink:href="#MicrosoftYaHei-16"/>
      </g>
     </g>
    </g>
    <g id="ytick_2">
     <g id="line2d_19">
      <path d="M 34.131953 152.063517 
L 283.377656 152.063517 
" clip-path="url(#p52c83b6d26)" style="fill: none; stroke: #d9d9d9; stroke-width: 0.5; stroke-linecap: square"/>
     </g>
     <g id="line2d_20">
      <g>
       <use xlink:href="#m06237ab109" x="34.131953" y="152.063517" style="stroke: #000000; stroke-width: 0.8"/>
      </g>
     </g>
     <g id="text_11">
      <!-- 1 -->
      <g transform="translate(21.854297 155.71757) scale(0.09 -0.09)">
       <use xlink:href="#MicrosoftYaHei-17"/>
      </g>
     </g>
    </g>
    <g id="ytick_3">
     <g id="line2d_21">
      <path d="M 34.131953 117.827686 
L 283.377656 117.827686 
" clip-path="url(#p52c83b6d26)" style="fill: none; stroke: #d9d9d9; stroke-width: 0.5; stroke-linecap: square"/>
     </g>
     <g id="line2d_22">
      <g>
       <use xlink:href="#m06237ab109" x="34.131953" y="117.827686" style="stroke: #000000; stroke-width: 0.8"/>
      </g>
     </g>
     <g id="text_12">
      <!-- 2 -->
      <g transform="translate(21.854297 121.481738) scale(0.09 -0.09)">
       <use xlink:href="#MicrosoftYaHei-18"/>
      </g>
     </g>
    </g>
    <g id="ytick_4">
     <g id="line2d_23">
      <path d="M 34.131953 83.591854 
L 283.377656 83.591854 
" clip-path="url(#p52c83b6d26)" style="fill: none; stroke: #d9d9d9; stroke-width: 0.5; stroke-linecap: square"/>
     </g>
     <g id="line2d_24">
      <g>
       <use xlink:href="#m06237ab109" x="34.131953" y="83.591854" style="stroke: #000000; stroke-width: 0.8"/>
      </g>
     </g>
     <g id="text_13">
      <!-- 3 -->
      <g transform="translate(21.854297 87.245906) scale(0.09 -0.09)">
       <use xlink:href="#MicrosoftYaHei-19"/>
      </g>
     </g>
    </g>
    <g id="ytick_5">
     <g id="line2d_25">
      <path d="M 34.131953 49.356022 
L 283.377656 49.356022 
" clip-path="url(#p52c83b6d26)" style="fill: none; stroke: #d9d9d9; stroke-width: 0.5; stroke-linecap: square"/>
     </g>
     <g id="line2d_26">
      <g>
       <use xlink:href="#m06237ab109" x="34.131953" y="49.356022" style="stroke: #000000; stroke-width: 0.8"/>
      </g>
     </g>
     <g id="text_14">
      <!-- 4 -->
      <g transform="translate(21.854297 53.010075) scale(0.09 -0.09)">
       <defs>
        <path id="MicrosoftYaHei-1a" d="M 2906 4841 
L 2906 1644 
L 3631 1644 
L 3631 1138 
L 2906 1138 
L 2906 0 
L 2313 0 
L 2313 1138 
L 53 1138 
L 53 1616 
Q 656 2294 1265 3178 
Q 1875 4063 2272 4841 
L 2906 4841 
z
M 741 1644 
L 2313 1644 
L 2313 3950 
Q 1988 3366 1616 2817 
Q 1244 2269 741 1644 
z
" transform="scale(0.015625)"/>
       </defs>
       <use xlink:href="#MicrosoftYaHei-1a"/>
      </g>
     </g>
    </g>
    <g id="text_15">
     <!-- Obscuration duration (s) -->
     <g transform="translate(15.320117 166.444014) rotate(-90) scale(0.1 -0.1)">
      <defs>
       <path id="MicrosoftYaHei-35" d="M 313 2363 
Q 313 3534 947 4228 
Q 1581 4922 2666 4922 
Q 3675 4922 4290 4244 
Q 4906 3566 4906 2478 
Q 4906 1300 4275 609 
Q 3644 -81 2588 -81 
Q 1556 -81 934 597 
Q 313 1275 313 2363 
z
M 969 2413 
Q 969 1534 1417 1004 
Q 1866 475 2588 475 
Q 3363 475 3805 983 
Q 4247 1491 4247 2403 
Q 4247 3341 3814 3850 
Q 3381 4359 2628 4359 
Q 1888 4359 1428 3821 
Q 969 3284 969 2413 
z
" transform="scale(0.015625)"/>
       <path id="MicrosoftYaHei-48" d="M 1159 488 
L 1159 0 
L 547 0 
L 547 5116 
L 1159 5116 
L 1159 2859 
L 1172 2859 
Q 1578 3538 2359 3538 
Q 3009 3538 3392 3080 
Q 3775 2622 3775 1828 
Q 3775 953 3345 436 
Q 2916 -81 2200 -81 
Q 1525 -81 1172 488 
L 1159 488 
z
M 1156 1422 
Q 1156 1003 1428 714 
Q 1700 425 2109 425 
Q 2597 425 2872 800 
Q 3147 1175 3147 1838 
Q 3147 2384 2890 2707 
Q 2634 3031 2191 3031 
Q 1741 3031 1448 2709 
Q 1156 2388 1156 1891 
L 1156 1422 
z
" transform="scale(0.015625)"/>
       <path id="MicrosoftYaHei-59" d="M 353 747 
Q 816 413 1350 413 
Q 2066 413 2066 881 
Q 2066 1081 1909 1211 
Q 1753 1341 1275 1519 
Q 700 1750 528 1976 
Q 356 2203 356 2525 
Q 356 2984 745 3261 
Q 1134 3538 1703 3538 
Q 2144 3538 2522 3384 
L 2522 2794 
Q 2134 3044 1644 3044 
Q 1350 3044 1165 2916 
Q 981 2788 981 2578 
Q 981 2372 1114 2256 
Q 1247 2141 1703 1959 
Q 2281 1744 2484 1512 
Q 2688 1281 2688 941 
Q 2688 466 2298 192 
Q 1909 -81 1291 -81 
Q 753 -81 353 122 
L 353 747 
z
" transform="scale(0.015625)"/>
       <path id="MicrosoftYaHei-49" d="M 2934 156 
Q 2538 -81 1978 -81 
Q 1228 -81 772 400 
Q 316 881 316 1647 
Q 316 2497 808 3017 
Q 1300 3538 2125 3538 
Q 2600 3538 2938 3369 
L 2938 2763 
Q 2572 3031 2125 3031 
Q 1600 3031 1270 2667 
Q 941 2303 941 1697 
Q 941 1100 1252 762 
Q 1563 425 2091 425 
Q 2538 425 2934 719 
L 2934 156 
z
" transform="scale(0.015625)"/>
       <path id="MicrosoftYaHei-5b" d="M 3400 0 
L 2784 0 
L 2784 544 
L 2772 544 
Q 2425 -81 1706 -81 
Q 478 -81 478 1388 
L 478 3456 
L 1084 3456 
L 1084 1478 
Q 1084 425 1891 425 
Q 2291 425 2537 720 
Q 2784 1016 2784 1466 
L 2784 3456 
L 3400 3456 
L 3400 0 
z
" transform="scale(0.015625)"/>
       <path id="MicrosoftYaHei-5a" d="M 2206 34 
Q 2006 -75 1666 -75 
Q 738 -75 738 953 
L 738 2950 
L 144 2950 
L 144 3456 
L 738 3456 
L 738 4288 
L 1347 4481 
L 1347 3456 
L 2206 3456 
L 2206 2950 
L 1347 2950 
L 1347 1063 
Q 1347 722 1462 575 
Q 1578 428 1847 428 
Q 2053 428 2206 544 
L 2206 34 
z
" transform="scale(0.015625)"/>
       <path id="MicrosoftYaHei-55" d="M 316 1691 
Q 316 2547 794 3042 
Q 1272 3538 2091 3538 
Q 2869 3538 3311 3061 
Q 3753 2584 3753 1744 
Q 3753 925 3281 422 
Q 2809 -81 2016 -81 
Q 1241 -81 778 406 
Q 316 894 316 1691 
z
M 941 1709 
Q 941 1113 1242 769 
Q 1544 425 2053 425 
Q 2578 425 2853 761 
Q 3128 1097 3128 1725 
Q 3128 2356 2853 2693 
Q 2578 3031 2053 3031 
Q 1538 3031 1239 2678 
Q 941 2325 941 1709 
z
" transform="scale(0.015625)"/>
      </defs>
      <use xlink:href="#MicrosoftYaHei-35"/>
      <use xlink:href="#MicrosoftYaHei-48" transform="translate(81.5 0)"/>
      <use xlink:href="#MicrosoftYaHei-59" transform="translate(145.375 0)"/>
      <use xlink:href="#MicrosoftYaHei-49" transform="translate(191.671875 0)"/>
      <use xlink:href="#MicrosoftYaHei-5b" transform="translate(241.8125 0)"/>
      <use xlink:href="#MicrosoftYaHei-58" transform="translate(303.4375 0)"/>
      <use xlink:href="#MicrosoftYaHei-47" transform="translate(341.625 0)"/>
      <use xlink:href="#MicrosoftYaHei-5a" transform="translate(396.90625 0)"/>
      <use xlink:href="#MicrosoftYaHei-4f" transform="translate(434.15625 0)"/>
      <use xlink:href="#MicrosoftYaHei-55" transform="translate(460.765625 0)"/>
      <use xlink:href="#MicrosoftYaHei-54" transform="translate(524.34375 0)"/>
      <use xlink:href="#MicrosoftYaHei-3" transform="translate(585.96875 0)"/>
      <use xlink:href="#MicrosoftYaHei-4a" transform="translate(615.5625 0)"/>
      <use xlink:href="#MicrosoftYaHei-5b" transform="translate(679.53125 0)"/>
      <use xlink:href="#MicrosoftYaHei-58" transform="translate(741.15625 0)"/>
      <use xlink:href="#MicrosoftYaHei-47" transform="translate(779.34375 0)"/>
      <use xlink:href="#MicrosoftYaHei-5a" transform="translate(834.625 0)"/>
      <use xlink:href="#MicrosoftYaHei-4f" transform="translate(871.875 0)"/>
      <use xlink:href="#MicrosoftYaHei-55" transform="translate(898.484375 0)"/>
      <use xlink:href="#MicrosoftYaHei-54" transform="translate(962.0625 0)"/>
      <use xlink:href="#MicrosoftYaHei-3" transform="translate(1023.6875 0)"/>
      <use xlink:href="#MicrosoftYaHei-e" transform="translate(1053.28125 0)"/>
      <use xlink:href="#MicrosoftYaHei-59" transform="translate(1086.6875 0)"/>
      <use xlink:href="#MicrosoftYaHei-f" transform="translate(1132.984375 0)"/>
     </g>
    </g>
   </g>
   <g id="line2d_27">
    <path d="M 45.461303 100.801628 
L 48.608345 29.949616 
L 51.755387 104.385634 
L 54.902428 186.299349 
L 58.04947 186.299349 
L 61.196512 186.299349 
L 64.343554 186.299349 
L 67.490595 186.299349 
L 70.637637 186.299349 
L 73.784679 186.299349 
L 76.93172 186.299349 
L 80.078762 186.299349 
L 83.225804 186.299349 
L 86.372845 186.299349 
L 89.519887 186.299349 
L 92.666929 186.299349 
L 95.813971 186.299349 
L 98.961012 186.299349 
L 102.108054 186.299349 
L 105.255096 186.299349 
L 108.402137 186.299349 
L 111.549179 186.299349 
L 114.696221 186.299349 
L 117.843263 186.299349 
L 120.990304 186.299349 
L 124.137346 186.299349 
L 127.284388 186.299349 
L 130.431429 186.299349 
L 133.578471 186.299349 
L 136.725513 186.299349 
L 139.872554 186.299349 
L 143.019596 186.299349 
L 146.166638 186.299349 
L 149.31368 186.299349 
L 152.460721 186.299349 
L 155.607763 186.299349 
L 158.754805 186.299349 
L 161.901846 186.299349 
L 165.048888 186.299349 
L 168.19593 186.299349 
L 171.342972 186.299349 
L 174.490013 186.299349 
L 177.637055 186.299349 
L 180.784097 186.299349 
L 183.931138 186.299349 
L 187.07818 186.299349 
L 190.225222 186.299349 
L 193.372263 186.299349 
L 196.519305 186.299349 
L 199.666347 186.299349 
L 202.813389 186.299349 
L 205.96043 186.299349 
L 209.107472 186.299349 
L 212.254514 186.299349 
L 215.401555 186.299349 
L 218.548597 186.299349 
L 221.695639 186.299349 
L 224.842681 186.299349 
L 227.989722 186.299349 
L 231.136764 186.299349 
L 234.283806 186.299349 
L 237.430847 186.299349 
L 240.577889 186.299349 
L 243.724931 186.299349 
L 246.871972 186.299349 
L 250.019014 186.299349 
L 253.166056 186.299349 
L 256.313098 186.299349 
L 259.460139 186.299349 
L 262.607181 186.299349 
L 265.754223 186.299349 
L 268.901264 186.299349 
L 272.048306 100.801628 
" clip-path="url(#p52c83b6d26)" style="fill: none; stroke: #0072b2; stroke-width: 1.6; stroke-linecap: square"/>
   </g>
   <g id="line2d_28">
    <path d="M 49.074245 194.116836 
L 49.074245 22.132129 
" clip-path="url(#p52c83b6d26)" style="fill: none; stroke-dasharray: 5.92,2.56; stroke-dashoffset: 0; stroke: #d55e00; stroke-width: 1.6"/>
   </g>
   <g id="patch_3">
    <path d="M 34.131953 194.116836 
L 34.131953 22.132129 
" style="fill: none; stroke: #000000; stroke-width: 0.8; stroke-linejoin: miter; stroke-linecap: square"/>
   </g>
   <g id="patch_4">
    <path d="M 283.377656 194.116836 
L 283.377656 22.132129 
" style="fill: none; stroke: #000000; stroke-width: 0.8; stroke-linejoin: miter; stroke-linecap: square"/>
   </g>
   <g id="patch_5">
    <path d="M 34.131953 194.116836 
L 283.377656 194.116836 
" style="fill: none; stroke: #000000; stroke-width: 0.8; stroke-linejoin: miter; stroke-linecap: square"/>
   </g>
   <g id="patch_6">
    <path d="M 34.131953 22.132129 
L 283.377656 22.132129 
" style="fill: none; stroke: #000000; stroke-width: 0.8; stroke-linejoin: miter; stroke-linecap: square"/>
   </g>
   <g id="text_16">
    <!-- Heading slice -->
    <g transform="translate(123.471445 16.132129) scale(0.11 -0.11)">
     <defs>
      <path id="MicrosoftYaHei-52" d="M 544 0 
L 544 5116 
L 1156 5116 
L 1156 0 
L 544 0 
z
" transform="scale(0.015625)"/>
     </defs>
     <use xlink:href="#MicrosoftYaHei-2e"/>
     <use xlink:href="#MicrosoftYaHei-4b" transform="translate(77.34375 0)"/>
     <use xlink:href="#MicrosoftYaHei-47" transform="translate(134.078125 0)"/>
     <use xlink:href="#MicrosoftYaHei-4a" transform="translate(189.359375 0)"/>
     <use xlink:href="#MicrosoftYaHei-4f" transform="translate(253.328125 0)"/>
     <use xlink:href="#MicrosoftYaHei-54" transform="translate(279.9375 0)"/>
     <use xlink:href="#MicrosoftYaHei-4d" transform="translate(341.5625 0)"/>
     <use xlink:href="#MicrosoftYaHei-3" transform="translate(405.53125 0)"/>
     <use xlink:href="#MicrosoftYaHei-59" transform="translate(435.125 0)"/>
     <use xlink:href="#MicrosoftYaHei-52" transform="translate(481.421875 0)"/>
     <use xlink:href="#MicrosoftYaHei-4f" transform="translate(508.03125 0)"/>
     <use xlink:href="#MicrosoftYaHei-49" transform="translate(534.640625 0)"/>
     <use xlink:href="#MicrosoftYaHei-4b" transform="translate(584.78125 0)"/>
    </g>
   </g>
   <g id="legend_1">
    <g id="line2d_29">
     <path d="M 209.723906 34.390234 
L 218.723906 34.390234 
L 227.723906 34.390234 
" style="fill: none; stroke-dasharray: 5.92,2.56; stroke-dashoffset: 0; stroke: #d55e00; stroke-width: 1.6"/>
    </g>
    <g id="text_17">
     <!-- Accepted -->
     <g transform="translate(234.923906 37.540234) scale(0.09 -0.09)">
      <defs>
       <path id="MicrosoftYaHei-27" d="M 4428 0 
L 3738 0 
L 3244 1325 
L 1228 1325 
L 763 0 
L 72 0 
L 1916 4841 
L 2584 4841 
L 4428 0 
z
M 3050 1872 
L 2319 3884 
Q 2284 3981 2244 4222 
L 2228 4222 
Q 2194 4003 2150 3884 
L 1425 1872 
L 3050 1872 
z
" transform="scale(0.015625)"/>
       <path id="MicrosoftYaHei-56" d="M 1159 488 
L 1159 -1591 
L 547 -1591 
L 547 3456 
L 1159 3456 
L 1159 2859 
L 1172 2859 
Q 1578 3538 2359 3538 
Q 3022 3538 3398 3073 
Q 3775 2609 3775 1828 
Q 3775 966 3348 442 
Q 2922 -81 2200 -81 
Q 1534 -81 1172 488 
L 1159 488 
z
M 1156 1425 
Q 1156 1003 1428 714 
Q 1700 425 2109 425 
Q 2597 425 2872 800 
Q 3147 1175 3147 1838 
Q 3147 2397 2890 2714 
Q 2634 3031 2191 3031 
Q 1738 3031 1447 2709 
Q 1156 2388 1156 1884 
L 1156 1425 
z
" transform="scale(0.015625)"/>
      </defs>
      <use xlink:href="#MicrosoftYaHei-27"/>
      <use xlink:href="#MicrosoftYaHei-49" transform="translate(70.359375 0)"/>
      <use xlink:href="#MicrosoftYaHei-49" transform="translate(120.5 0)"/>
      <use xlink:href="#MicrosoftYaHei-4b" transform="translate(170.640625 0)"/>
      <use xlink:href="#MicrosoftYaHei-56" transform="translate(227.375 0)"/>
      <use xlink:href="#MicrosoftYaHei-5a" transform="translate(291.25 0)"/>
      <use xlink:href="#MicrosoftYaHei-4b" transform="translate(327.671875 0)"/>
      <use xlink:href="#MicrosoftYaHei-4a" transform="translate(384.40625 0)"/>
     </g>
    </g>
   </g>
  </g>
  <g id="axes_2">
   <g id="patch_7">
    <path d="M 328.431953 194.116836 
L 577.677656 194.116836 
L 577.677656 22.132129 
L 328.431953 22.132129 
z
" style="fill: #ffffff"/>
   </g>
   <g id="matplotlib.axis_3">
    <g id="xtick_9">
     <g id="line2d_30">
      <path d="M 339.761303 194.116836 
L 339.761303 22.132129 
" clip-path="url(#pa0fd5a31b6)" style="fill: none; stroke: #d9d9d9; stroke-width: 0.5; stroke-linecap: square"/>
     </g>
     <g id="line2d_31">
      <g>
       <use xlink:href="#m6cdca2b017" x="339.761303" y="194.116836" style="stroke: #000000; stroke-width: 0.8"/>
      </g>
     </g>
     <g id="text_18">
      <!-- 70 -->
      <g transform="translate(334.483647 208.424941) scale(0.09 -0.09)">
       <defs>
        <path id="MicrosoftYaHei-1d" d="M 3422 4463 
Q 2659 3131 2223 1998 
Q 1788 866 1684 0 
L 1047 0 
Q 1163 853 1594 1947 
Q 2025 3041 2747 4300 
L 347 4300 
L 347 4841 
L 3422 4841 
L 3422 4463 
z
" transform="scale(0.015625)"/>
       </defs>
       <use xlink:href="#MicrosoftYaHei-1d"/>
       <use xlink:href="#MicrosoftYaHei-16" transform="translate(58.640625 0)"/>
      </g>
     </g>
    </g>
    <g id="xtick_10">
     <g id="line2d_32">
      <path d="M 372.130875 194.116836 
L 372.130875 22.132129 
" clip-path="url(#pa0fd5a31b6)" style="fill: none; stroke: #d9d9d9; stroke-width: 0.5; stroke-linecap: square"/>
     </g>
     <g id="line2d_33">
      <g>
       <use xlink:href="#m6cdca2b017" x="372.130875" y="194.116836" style="stroke: #000000; stroke-width: 0.8"/>
      </g>
     </g>
     <g id="text_19">
      <!-- 80 -->
      <g transform="translate(366.853219 208.424941) scale(0.09 -0.09)">
       <defs>
        <path id="MicrosoftYaHei-1e" d="M 306 1350 
Q 306 1769 556 2122 
Q 806 2475 1200 2625 
Q 884 2803 700 3081 
Q 516 3359 516 3684 
Q 516 4028 692 4312 
Q 869 4597 1183 4759 
Q 1497 4922 1875 4922 
Q 2256 4922 2572 4761 
Q 2888 4600 3063 4315 
Q 3238 4031 3238 3684 
Q 3238 3366 3058 3086 
Q 2878 2806 2559 2625 
Q 2953 2472 3200 2119 
Q 3447 1766 3447 1350 
Q 3447 938 3250 611 
Q 3053 284 2690 103 
Q 2328 -78 1875 -78 
Q 1425 -78 1065 103 
Q 706 284 506 612 
Q 306 941 306 1350 
z
M 906 1378 
Q 906 947 1172 687 
Q 1438 428 1878 428 
Q 2309 428 2582 692 
Q 2856 956 2856 1378 
Q 2856 1778 2579 2051 
Q 2303 2325 1878 2325 
Q 1456 2325 1181 2058 
Q 906 1791 906 1378 
z
M 1081 3634 
Q 1081 3309 1312 3076 
Q 1544 2844 1878 2844 
Q 2206 2844 2445 3078 
Q 2684 3313 2684 3634 
Q 2684 3963 2454 4191 
Q 2225 4419 1878 4419 
Q 1534 4419 1307 4195 
Q 1081 3972 1081 3634 
z
" transform="scale(0.015625)"/>
       </defs>
       <use xlink:href="#MicrosoftYaHei-1e"/>
       <use xlink:href="#MicrosoftYaHei-16" transform="translate(58.640625 0)"/>
      </g>
     </g>
    </g>
    <g id="xtick_11">
     <g id="line2d_34">
      <path d="M 404.500447 194.116836 
L 404.500447 22.132129 
" clip-path="url(#pa0fd5a31b6)" style="fill: none; stroke: #d9d9d9; stroke-width: 0.5; stroke-linecap: square"/>
     </g>
     <g id="line2d_35">
      <g>
       <use xlink:href="#m6cdca2b017" x="404.500447" y="194.116836" style="stroke: #000000; stroke-width: 0.8"/>
      </g>
     </g>
     <g id="text_20">
      <!-- 90 -->
      <g transform="translate(399.222791 208.424941) scale(0.09 -0.09)">
       <defs>
        <path id="MicrosoftYaHei-1f" d="M 578 656 
Q 978 425 1441 425 
Q 2091 425 2448 937 
Q 2806 1450 2806 2394 
Q 2800 2388 2794 2394 
Q 2475 1788 1722 1788 
Q 1113 1788 713 2206 
Q 313 2625 313 3294 
Q 313 4006 750 4464 
Q 1188 4922 1884 4922 
Q 2606 4922 3012 4355 
Q 3419 3788 3419 2703 
Q 3419 1363 2894 641 
Q 2369 -81 1441 -81 
Q 931 -81 578 84 
L 578 656 
z
M 931 3372 
Q 931 2884 1181 2598 
Q 1431 2313 1872 2313 
Q 2253 2313 2512 2573 
Q 2772 2834 2772 3206 
Q 2772 3728 2514 4070 
Q 2256 4413 1834 4413 
Q 1444 4413 1187 4116 
Q 931 3819 931 3372 
z
" transform="scale(0.015625)"/>
       </defs>
       <use xlink:href="#MicrosoftYaHei-1f"/>
       <use xlink:href="#MicrosoftYaHei-16" transform="translate(58.640625 0)"/>
      </g>
     </g>
    </g>
    <g id="xtick_12">
     <g id="line2d_36">
      <path d="M 436.870019 194.116836 
L 436.870019 22.132129 
" clip-path="url(#pa0fd5a31b6)" style="fill: none; stroke: #d9d9d9; stroke-width: 0.5; stroke-linecap: square"/>
     </g>
     <g id="line2d_37">
      <g>
       <use xlink:href="#m6cdca2b017" x="436.870019" y="194.116836" style="stroke: #000000; stroke-width: 0.8"/>
      </g>
     </g>
     <g id="text_21">
      <!-- 100 -->
      <g transform="translate(428.953534 208.424941) scale(0.09 -0.09)">
       <use xlink:href="#MicrosoftYaHei-17"/>
       <use xlink:href="#MicrosoftYaHei-16" transform="translate(58.640625 0)"/>
       <use xlink:href="#MicrosoftYaHei-16" transform="translate(117.28125 0)"/>
      </g>
     </g>
    </g>
    <g id="xtick_13">
     <g id="line2d_38">
      <path d="M 469.239591 194.116836 
L 469.239591 22.132129 
" clip-path="url(#pa0fd5a31b6)" style="fill: none; stroke: #d9d9d9; stroke-width: 0.5; stroke-linecap: square"/>
     </g>
     <g id="line2d_39">
      <g>
       <use xlink:href="#m6cdca2b017" x="469.239591" y="194.116836" style="stroke: #000000; stroke-width: 0.8"/>
      </g>
     </g>
     <g id="text_22">
      <!-- 110 -->
      <g transform="translate(461.323106 208.424941) scale(0.09 -0.09)">
       <use xlink:href="#MicrosoftYaHei-17"/>
       <use xlink:href="#MicrosoftYaHei-17" transform="translate(58.640625 0)"/>
       <use xlink:href="#MicrosoftYaHei-16" transform="translate(117.28125 0)"/>
      </g>
     </g>
    </g>
    <g id="xtick_14">
     <g id="line2d_40">
      <path d="M 501.609162 194.116836 
L 501.609162 22.132129 
" clip-path="url(#pa0fd5a31b6)" style="fill: none; stroke: #d9d9d9; stroke-width: 0.5; stroke-linecap: square"/>
     </g>
     <g id="line2d_41">
      <g>
       <use xlink:href="#m6cdca2b017" x="501.609162" y="194.116836" style="stroke: #000000; stroke-width: 0.8"/>
      </g>
     </g>
     <g id="text_23">
      <!-- 120 -->
      <g transform="translate(493.692678 208.424941) scale(0.09 -0.09)">
       <use xlink:href="#MicrosoftYaHei-17"/>
       <use xlink:href="#MicrosoftYaHei-18" transform="translate(58.640625 0)"/>
       <use xlink:href="#MicrosoftYaHei-16" transform="translate(117.28125 0)"/>
      </g>
     </g>
    </g>
    <g id="xtick_15">
     <g id="line2d_42">
      <path d="M 533.978734 194.116836 
L 533.978734 22.132129 
" clip-path="url(#pa0fd5a31b6)" style="fill: none; stroke: #d9d9d9; stroke-width: 0.5; stroke-linecap: square"/>
     </g>
     <g id="line2d_43">
      <g>
       <use xlink:href="#m6cdca2b017" x="533.978734" y="194.116836" style="stroke: #000000; stroke-width: 0.8"/>
      </g>
     </g>
     <g id="text_24">
      <!-- 130 -->
      <g transform="translate(526.06225 208.424941) scale(0.09 -0.09)">
       <use xlink:href="#MicrosoftYaHei-17"/>
       <use xlink:href="#MicrosoftYaHei-19" transform="translate(58.640625 0)"/>
       <use xlink:href="#MicrosoftYaHei-16" transform="translate(117.28125 0)"/>
      </g>
     </g>
    </g>
    <g id="xtick_16">
     <g id="line2d_44">
      <path d="M 566.348306 194.116836 
L 566.348306 22.132129 
" clip-path="url(#pa0fd5a31b6)" style="fill: none; stroke: #d9d9d9; stroke-width: 0.5; stroke-linecap: square"/>
     </g>
     <g id="line2d_45">
      <g>
       <use xlink:href="#m6cdca2b017" x="566.348306" y="194.116836" style="stroke: #000000; stroke-width: 0.8"/>
      </g>
     </g>
     <g id="text_25">
      <!-- 140 -->
      <g transform="translate(558.431822 208.424941) scale(0.09 -0.09)">
       <use xlink:href="#MicrosoftYaHei-17"/>
       <use xlink:href="#MicrosoftYaHei-1a" transform="translate(58.640625 0)"/>
       <use xlink:href="#MicrosoftYaHei-16" transform="translate(117.28125 0)"/>
      </g>
     </g>
    </g>
    <g id="text_26">
     <!-- UAV speed (m/s) -->
     <g transform="translate(413.021211 222.82582) scale(0.1 -0.1)">
      <defs>
       <path id="MicrosoftYaHei-3b" d="M 4213 1972 
Q 4213 -81 2350 -81 
Q 566 -81 566 1900 
L 566 4841 
L 1191 4841 
L 1191 1928 
Q 1191 475 2409 475 
Q 3588 475 3588 1881 
L 3588 4841 
L 4213 4841 
L 4213 1972 
z
" transform="scale(0.015625)"/>
       <path id="MicrosoftYaHei-3c" d="M 4272 4841 
L 2494 0 
L 1800 0 
L 56 4841 
L 750 4841 
L 2053 1056 
Q 2119 869 2150 622 
L 2166 622 
Q 2191 838 2275 1063 
L 3603 4841 
L 4272 4841 
z
" transform="scale(0.015625)"/>
       <path id="MicrosoftYaHei-53" d="M 5522 0 
L 4909 0 
L 4909 1984 
Q 4909 2547 4734 2789 
Q 4559 3031 4159 3031 
Q 3822 3031 3581 2715 
Q 3341 2400 3341 1969 
L 3341 0 
L 2728 0 
L 2728 2047 
Q 2728 3031 1969 3031 
Q 1619 3031 1389 2731 
Q 1159 2431 1159 1966 
L 1159 0 
L 547 0 
L 547 3456 
L 1159 3456 
L 1159 2909 
L 1172 2909 
Q 1541 3538 2250 3538 
Q 2597 3538 2862 3347 
Q 3128 3156 3231 2831 
Q 3616 3538 4381 3538 
Q 5522 3538 5522 2131 
L 5522 0 
z
" transform="scale(0.015625)"/>
       <path id="MicrosoftYaHei-15" d="M 2791 4841 
L 469 -803 
L -103 -803 
L 2219 4841 
L 2791 4841 
z
" transform="scale(0.015625)"/>
      </defs>
      <use xlink:href="#MicrosoftYaHei-3b"/>
      <use xlink:href="#MicrosoftYaHei-27" transform="translate(72.515625 0)"/>
      <use xlink:href="#MicrosoftYaHei-3c" transform="translate(136.71875 0)"/>
      <use xlink:href="#MicrosoftYaHei-3" transform="translate(204.34375 0)"/>
      <use xlink:href="#MicrosoftYaHei-59" transform="translate(233.9375 0)"/>
      <use xlink:href="#MicrosoftYaHei-56" transform="translate(280.234375 0)"/>
      <use xlink:href="#MicrosoftYaHei-4b" transform="translate(344.109375 0)"/>
      <use xlink:href="#MicrosoftYaHei-4b" transform="translate(400.84375 0)"/>
      <use xlink:href="#MicrosoftYaHei-4a" transform="translate(457.578125 0)"/>
      <use xlink:href="#MicrosoftYaHei-3" transform="translate(521.546875 0)"/>
      <use xlink:href="#MicrosoftYaHei-e" transform="translate(551.140625 0)"/>
      <use xlink:href="#MicrosoftYaHei-53" transform="translate(584.546875 0)"/>
      <use xlink:href="#MicrosoftYaHei-15" transform="translate(678.25 0)"/>
      <use xlink:href="#MicrosoftYaHei-59" transform="translate(720.96875 0)"/>
      <use xlink:href="#MicrosoftYaHei-f" transform="translate(767.265625 0)"/>
     </g>
    </g>
   </g>
   <g id="matplotlib.axis_4">
    <g id="ytick_6">
     <g id="line2d_46">
      <path d="M 328.431953 180.636385 
L 577.677656 180.636385 
" clip-path="url(#pa0fd5a31b6)" style="fill: none; stroke: #d9d9d9; stroke-width: 0.5; stroke-linecap: square"/>
     </g>
     <g id="line2d_47">
      <g>
       <use xlink:href="#m06237ab109" x="328.431953" y="180.636385" style="stroke: #000000; stroke-width: 0.8"/>
      </g>
     </g>
     <g id="text_27">
      <!-- 3.8 -->
      <g transform="translate(308.709609 184.290438) scale(0.09 -0.09)">
       <defs>
        <path id="MicrosoftYaHei-14" d="M 372 322 
Q 372 491 487 606 
Q 603 722 775 722 
Q 950 722 1065 605 
Q 1181 488 1181 322 
Q 1181 159 1065 42 
Q 950 -75 772 -75 
Q 600 -75 486 42 
Q 372 159 372 322 
z
" transform="scale(0.015625)"/>
       </defs>
       <use xlink:href="#MicrosoftYaHei-19"/>
       <use xlink:href="#MicrosoftYaHei-14" transform="translate(58.640625 0)"/>
       <use xlink:href="#MicrosoftYaHei-1e" transform="translate(82.71875 0)"/>
      </g>
     </g>
    </g>
    <g id="ytick_7">
     <g id="line2d_48">
      <path d="M 328.431953 161.463735 
L 577.677656 161.463735 
" clip-path="url(#pa0fd5a31b6)" style="fill: none; stroke: #d9d9d9; stroke-width: 0.5; stroke-linecap: square"/>
     </g>
     <g id="line2d_49">
      <g>
       <use xlink:href="#m06237ab109" x="328.431953" y="161.463735" style="stroke: #000000; stroke-width: 0.8"/>
      </g>
     </g>
     <g id="text_28">
      <!-- 3.9 -->
      <g transform="translate(308.709609 165.117788) scale(0.09 -0.09)">
       <use xlink:href="#MicrosoftYaHei-19"/>
       <use xlink:href="#MicrosoftYaHei-14" transform="translate(58.640625 0)"/>
       <use xlink:href="#MicrosoftYaHei-1f" transform="translate(82.71875 0)"/>
      </g>
     </g>
    </g>
    <g id="ytick_8">
     <g id="line2d_50">
      <path d="M 328.431953 142.291084 
L 577.677656 142.291084 
" clip-path="url(#pa0fd5a31b6)" style="fill: none; stroke: #d9d9d9; stroke-width: 0.5; stroke-linecap: square"/>
     </g>
     <g id="line2d_51">
      <g>
       <use xlink:href="#m06237ab109" x="328.431953" y="142.291084" style="stroke: #000000; stroke-width: 0.8"/>
      </g>
     </g>
     <g id="text_29">
      <!-- 4.0 -->
      <g transform="translate(308.709609 145.945137) scale(0.09 -0.09)">
       <use xlink:href="#MicrosoftYaHei-1a"/>
       <use xlink:href="#MicrosoftYaHei-14" transform="translate(58.640625 0)"/>
       <use xlink:href="#MicrosoftYaHei-16" transform="translate(82.71875 0)"/>
      </g>
     </g>
    </g>
    <g id="ytick_9">
     <g id="line2d_52">
      <path d="M 328.431953 123.118434 
L 577.677656 123.118434 
" clip-path="url(#pa0fd5a31b6)" style="fill: none; stroke: #d9d9d9; stroke-width: 0.5; stroke-linecap: square"/>
     </g>
     <g id="line2d_53">
      <g>
       <use xlink:href="#m06237ab109" x="328.431953" y="123.118434" style="stroke: #000000; stroke-width: 0.8"/>
      </g>
     </g>
     <g id="text_30">
      <!-- 4.1 -->
      <g transform="translate(308.709609 126.772487) scale(0.09 -0.09)">
       <use xlink:href="#MicrosoftYaHei-1a"/>
       <use xlink:href="#MicrosoftYaHei-14" transform="translate(58.640625 0)"/>
       <use xlink:href="#MicrosoftYaHei-17" transform="translate(82.71875 0)"/>
      </g>
     </g>
    </g>
    <g id="ytick_10">
     <g id="line2d_54">
      <path d="M 328.431953 103.945784 
L 577.677656 103.945784 
" clip-path="url(#pa0fd5a31b6)" style="fill: none; stroke: #d9d9d9; stroke-width: 0.5; stroke-linecap: square"/>
     </g>
     <g id="line2d_55">
      <g>
       <use xlink:href="#m06237ab109" x="328.431953" y="103.945784" style="stroke: #000000; stroke-width: 0.8"/>
      </g>
     </g>
     <g id="text_31">
      <!-- 4.2 -->
      <g transform="translate(308.709609 107.599836) scale(0.09 -0.09)">
       <use xlink:href="#MicrosoftYaHei-1a"/>
       <use xlink:href="#MicrosoftYaHei-14" transform="translate(58.640625 0)"/>
       <use xlink:href="#MicrosoftYaHei-18" transform="translate(82.71875 0)"/>
      </g>
     </g>
    </g>
    <g id="ytick_11">
     <g id="line2d_56">
      <path d="M 328.431953 84.773133 
L 577.677656 84.773133 
" clip-path="url(#pa0fd5a31b6)" style="fill: none; stroke: #d9d9d9; stroke-width: 0.5; stroke-linecap: square"/>
     </g>
     <g id="line2d_57">
      <g>
       <use xlink:href="#m06237ab109" x="328.431953" y="84.773133" style="stroke: #000000; stroke-width: 0.8"/>
      </g>
     </g>
     <g id="text_32">
      <!-- 4.3 -->
      <g transform="translate(308.709609 88.427186) scale(0.09 -0.09)">
       <use xlink:href="#MicrosoftYaHei-1a"/>
       <use xlink:href="#MicrosoftYaHei-14" transform="translate(58.640625 0)"/>
       <use xlink:href="#MicrosoftYaHei-19" transform="translate(82.71875 0)"/>
      </g>
     </g>
    </g>
    <g id="ytick_12">
     <g id="line2d_58">
      <path d="M 328.431953 65.600483 
L 577.677656 65.600483 
" clip-path="url(#pa0fd5a31b6)" style="fill: none; stroke: #d9d9d9; stroke-width: 0.5; stroke-linecap: square"/>
     </g>
     <g id="line2d_59">
      <g>
       <use xlink:href="#m06237ab109" x="328.431953" y="65.600483" style="stroke: #000000; stroke-width: 0.8"/>
      </g>
     </g>
     <g id="text_33">
      <!-- 4.4 -->
      <g transform="translate(308.709609 69.254535) scale(0.09 -0.09)">
       <use xlink:href="#MicrosoftYaHei-1a"/>
       <use xlink:href="#MicrosoftYaHei-14" transform="translate(58.640625 0)"/>
       <use xlink:href="#MicrosoftYaHei-1a" transform="translate(82.71875 0)"/>
      </g>
     </g>
    </g>
    <g id="ytick_13">
     <g id="line2d_60">
      <path d="M 328.431953 46.427832 
L 577.677656 46.427832 
" clip-path="url(#pa0fd5a31b6)" style="fill: none; stroke: #d9d9d9; stroke-width: 0.5; stroke-linecap: square"/>
     </g>
     <g id="line2d_61">
      <g>
       <use xlink:href="#m06237ab109" x="328.431953" y="46.427832" style="stroke: #000000; stroke-width: 0.8"/>
      </g>
     </g>
     <g id="text_34">
      <!-- 4.5 -->
      <g transform="translate(308.709609 50.081885) scale(0.09 -0.09)">
       <use xlink:href="#MicrosoftYaHei-1a"/>
       <use xlink:href="#MicrosoftYaHei-14" transform="translate(58.640625 0)"/>
       <use xlink:href="#MicrosoftYaHei-1b" transform="translate(82.71875 0)"/>
      </g>
     </g>
    </g>
    <g id="ytick_14">
     <g id="line2d_62">
      <path d="M 328.431953 27.255182 
L 577.677656 27.255182 
" clip-path="url(#pa0fd5a31b6)" style="fill: none; stroke: #d9d9d9; stroke-width: 0.5; stroke-linecap: square"/>
     </g>
     <g id="line2d_63">
      <g>
       <use xlink:href="#m06237ab109" x="328.431953" y="27.255182" style="stroke: #000000; stroke-width: 0.8"/>
      </g>
     </g>
     <g id="text_35">
      <!-- 4.6 -->
      <g transform="translate(308.709609 30.909234) scale(0.09 -0.09)">
       <defs>
        <path id="MicrosoftYaHei-1c" d="M 3181 4219 
Q 2803 4413 2391 4413 
Q 1763 4413 1381 3866 
Q 1000 3319 994 2372 
L 1009 2372 
Q 1353 3038 2106 3038 
Q 2734 3038 3109 2628 
Q 3484 2219 3484 1541 
Q 3484 831 3051 375 
Q 2619 -81 1947 -81 
Q 1209 -81 789 495 
Q 369 1072 369 2131 
Q 369 3413 920 4167 
Q 1472 4922 2372 4922 
Q 2888 4922 3181 4781 
L 3181 4219 
z
M 1031 1584 
Q 1031 1106 1286 765 
Q 1541 425 1963 425 
Q 2363 425 2613 719 
Q 2863 1013 2863 1475 
Q 2863 1975 2627 2253 
Q 2391 2531 1956 2531 
Q 1544 2531 1287 2250 
Q 1031 1969 1031 1584 
z
" transform="scale(0.015625)"/>
       </defs>
       <use xlink:href="#MicrosoftYaHei-1a"/>
       <use xlink:href="#MicrosoftYaHei-14" transform="translate(58.640625 0)"/>
       <use xlink:href="#MicrosoftYaHei-1c" transform="translate(82.71875 0)"/>
      </g>
     </g>
    </g>
    <g id="text_36">
     <!-- Obscuration duration (s) -->
     <g transform="translate(302.17543 166.444014) rotate(-90) scale(0.1 -0.1)">
      <use xlink:href="#MicrosoftYaHei-35"/>
      <use xlink:href="#MicrosoftYaHei-48" transform="translate(81.5 0)"/>
      <use xlink:href="#MicrosoftYaHei-59" transform="translate(145.375 0)"/>
      <use xlink:href="#MicrosoftYaHei-49" transform="translate(191.671875 0)"/>
      <use xlink:href="#MicrosoftYaHei-5b" transform="translate(241.8125 0)"/>
      <use xlink:href="#MicrosoftYaHei-58" transform="translate(303.4375 0)"/>
      <use xlink:href="#MicrosoftYaHei-47" transform="translate(341.625 0)"/>
      <use xlink:href="#MicrosoftYaHei-5a" transform="translate(396.90625 0)"/>
      <use xlink:href="#MicrosoftYaHei-4f" transform="translate(434.15625 0)"/>
      <use xlink:href="#MicrosoftYaHei-55" transform="translate(460.765625 0)"/>
      <use xlink:href="#MicrosoftYaHei-54" transform="translate(524.34375 0)"/>
      <use xlink:href="#MicrosoftYaHei-3" transform="translate(585.96875 0)"/>
      <use xlink:href="#MicrosoftYaHei-4a" transform="translate(615.5625 0)"/>
      <use xlink:href="#MicrosoftYaHei-5b" transform="translate(679.53125 0)"/>
      <use xlink:href="#MicrosoftYaHei-58" transform="translate(741.15625 0)"/>
      <use xlink:href="#MicrosoftYaHei-47" transform="translate(779.34375 0)"/>
      <use xlink:href="#MicrosoftYaHei-5a" transform="translate(834.625 0)"/>
      <use xlink:href="#MicrosoftYaHei-4f" transform="translate(871.875 0)"/>
      <use xlink:href="#MicrosoftYaHei-55" transform="translate(898.484375 0)"/>
      <use xlink:href="#MicrosoftYaHei-54" transform="translate(962.0625 0)"/>
      <use xlink:href="#MicrosoftYaHei-3" transform="translate(1023.6875 0)"/>
      <use xlink:href="#MicrosoftYaHei-e" transform="translate(1053.28125 0)"/>
      <use xlink:href="#MicrosoftYaHei-59" transform="translate(1086.6875 0)"/>
      <use xlink:href="#MicrosoftYaHei-f" transform="translate(1132.984375 0)"/>
     </g>
    </g>
   </g>
   <g id="line2d_64">
    <path d="M 339.761303 51.099058 
L 347.314203 37.784993 
L 354.867103 34.143753 
L 362.420004 33.88129 
L 369.972904 33.621641 
L 377.525804 33.364908 
L 385.078704 33.1112 
L 392.631604 32.860629 
L 400.184504 32.613313 
L 407.737404 32.369376 
L 415.290304 32.128958 
L 422.843204 31.892157 
L 430.396104 31.659148 
L 437.949004 31.430064 
L 445.501905 31.205054 
L 453.054805 30.98425 
L 460.607705 30.767882 
L 468.160605 30.556047 
L 475.713505 30.348939 
L 483.266405 30.146735 
L 490.819305 29.949616 
L 498.372205 42.750527 
L 505.925105 58.620372 
L 513.478005 74.510128 
L 521.030906 90.41983 
L 528.583806 106.349519 
L 536.136706 122.299237 
L 543.689606 138.269039 
L 551.242506 154.258944 
L 558.795406 170.269033 
L 566.348306 186.299349 
" clip-path="url(#pa0fd5a31b6)" style="fill: none; stroke: #0072b2; stroke-width: 1.6; stroke-linecap: square"/>
   </g>
   <g id="line2d_65">
    <path d="M 566.348305 194.116836 
L 566.348305 22.132129 
" clip-path="url(#pa0fd5a31b6)" style="fill: none; stroke-dasharray: 5.92,2.56; stroke-dashoffset: 0; stroke: #d55e00; stroke-width: 1.6"/>
   </g>
   <g id="patch_8">
    <path d="M 328.431953 194.116836 
L 328.431953 22.132129 
" style="fill: none; stroke: #000000; stroke-width: 0.8; stroke-linejoin: miter; stroke-linecap: square"/>
   </g>
   <g id="patch_9">
    <path d="M 577.677656 194.116836 
L 577.677656 22.132129 
" style="fill: none; stroke: #000000; stroke-width: 0.8; stroke-linejoin: miter; stroke-linecap: square"/>
   </g>
   <g id="patch_10">
    <path d="M 328.431953 194.116836 
L 577.677656 194.116836 
" style="fill: none; stroke: #000000; stroke-width: 0.8; stroke-linejoin: miter; stroke-linecap: square"/>
   </g>
   <g id="patch_11">
    <path d="M 328.431953 22.132129 
L 577.677656 22.132129 
" style="fill: none; stroke: #000000; stroke-width: 0.8; stroke-linejoin: miter; stroke-linecap: square"/>
   </g>
   <g id="text_37">
    <!-- Speed slice -->
    <g transform="translate(423.628945 16.132129) scale(0.11 -0.11)">
     <defs>
      <path id="MicrosoftYaHei-39" d="M 400 909 
Q 622 716 994 591 
Q 1366 466 1700 466 
Q 2719 466 2719 1191 
Q 2719 1394 2609 1556 
Q 2500 1719 2309 1844 
Q 2119 1969 1594 2228 
Q 866 2591 634 2902 
Q 403 3213 403 3613 
Q 403 4216 887 4569 
Q 1372 4922 2109 4922 
Q 2831 4922 3169 4747 
L 3169 4066 
Q 2731 4369 2063 4369 
Q 1619 4369 1339 4183 
Q 1059 3997 1059 3666 
Q 1059 3372 1253 3187 
Q 1447 3003 2094 2684 
Q 2806 2344 3090 2003 
Q 3375 1663 3375 1238 
Q 3375 600 2912 259 
Q 2450 -81 1628 -81 
Q 1341 -81 958 -1 
Q 575 78 400 197 
L 400 909 
z
" transform="scale(0.015625)"/>
     </defs>
     <use xlink:href="#MicrosoftYaHei-39"/>
     <use xlink:href="#MicrosoftYaHei-56" transform="translate(57.71875 0)"/>
     <use xlink:href="#MicrosoftYaHei-4b" transform="translate(121.59375 0)"/>
     <use xlink:href="#MicrosoftYaHei-4b" transform="translate(178.328125 0)"/>
     <use xlink:href="#MicrosoftYaHei-4a" transform="translate(235.0625 0)"/>
     <use xlink:href="#MicrosoftYaHei-3" transform="translate(299.03125 0)"/>
     <use xlink:href="#MicrosoftYaHei-59" transform="translate(328.625 0)"/>
     <use xlink:href="#MicrosoftYaHei-52" transform="translate(374.921875 0)"/>
     <use xlink:href="#MicrosoftYaHei-4f" transform="translate(401.53125 0)"/>
     <use xlink:href="#MicrosoftYaHei-49" transform="translate(428.140625 0)"/>
     <use xlink:href="#MicrosoftYaHei-4b" transform="translate(478.28125 0)"/>
    </g>
   </g>
   <g id="legend_2">
    <g id="line2d_66">
     <path d="M 336.531953 180.586074 
L 345.531953 180.586074 
L 354.531953 180.586074 
" style="fill: none; stroke-dasharray: 5.92,2.56; stroke-dashoffset: 0; stroke: #d55e00; stroke-width: 1.6"/>
    </g>
    <g id="text_38">
     <!-- Accepted -->
     <g transform="translate(361.731953 183.736074) scale(0.09 -0.09)">
      <use xlink:href="#MicrosoftYaHei-27"/>
      <use xlink:href="#MicrosoftYaHei-49" transform="translate(70.359375 0)"/>
      <use xlink:href="#MicrosoftYaHei-49" transform="translate(120.5 0)"/>
      <use xlink:href="#MicrosoftYaHei-4b" transform="translate(170.640625 0)"/>
      <use xlink:href="#MicrosoftYaHei-56" transform="translate(227.375 0)"/>
      <use xlink:href="#MicrosoftYaHei-5a" transform="translate(291.25 0)"/>
      <use xlink:href="#MicrosoftYaHei-4b" transform="translate(327.671875 0)"/>
      <use xlink:href="#MicrosoftYaHei-4a" transform="translate(384.40625 0)"/>
     </g>
    </g>
   </g>
  </g>
 </g>
 <defs>
  <clipPath id="p52c83b6d26">
   <rect x="34.131953" y="22.132129" width="249.245703" height="171.984707"/>
  </clipPath>
  <clipPath id="pa0fd5a31b6">
   <rect x="328.431953" y="22.132129" width="249.245703" height="171.984707"/>
  </clipPath>
 </defs>
</svg>
