<?xml version="1.0" encoding="UTF-8"?>
<!DOCTYPE svg PUBLIC "-//W3C//DTD SVG 1.1//EN" "http://www.w3.org/Graphics/SVG/1.1/DTD/svg11.dtd">
<!--Generated by Origin-->
<svg xmlns="http://www.w3.org/2000/svg" xmlns:xlink="http://www.w3.org/1999/xlink" xmlns:olab="http://www.originlab.com/namespaces/olab" viewBox="0,0 847,601" width="2.820000in" height="2.000000in">
	<polygon points="144,36 796,36 796,450 144,450" shape-rendering="crispEdges" fill="white" fill-rule="evenodd" stroke="none" olab:comment="" olab:scope="Layer0" class="Layer0 Layer"/>
	<defs>
		<mask id="Cp_1">
			<rect x="144" y="36" width="653" height="415" fill="white"/>
		</mask>
	</defs>
	<g mask="url(#Cp_1)">
		<rect x="0" y="0" width="847" height="601" visibility="hidden" fill="none" opacity="0"/>
		<polyline points="144,44 146,45 147,45 149,46 150,46 152,47 153,48 155,48 156,49 158,50 159,51 161,51" style="stroke: #76A3B5;stroke-width: 4;stroke-linecap:round;stroke-linejoin:round" fill="none" olab:comment="" olab:scope="Layer0.Plot0" class="Layer0 Layer Plot0 Plot"/>
		<polyline points="179,62 181,63 182,64 184,65 186,66 187,67 189,68 190,69 192,70 193,71 195,72" style="stroke: #76A3B5;stroke-width: 4;stroke-linecap:round;stroke-linejoin:round" fill="none" olab:comment="" olab:scope="Layer0.Plot0" class="Layer0 Layer Plot0 Plot"/>
		<polyline points="216,84 218,85 219,86 221,87 222,88 224,88 226,89 227,90 229,91 230,92 232,92" style="stroke: #76A3B5;stroke-width: 4;stroke-linecap:round;stroke-linejoin:round" fill="none" olab:comment="" olab:scope="Layer0.Plot0" class="Layer0 Layer Plot0 Plot"/>
		<polyline points="253,103 255,103 256,104 258,105 259,105 261,106 262,107 264,107 265,108 267,109 269,110 270,110 271,110" style="stroke: #76A3B5;stroke-width: 4;stroke-linecap:round;stroke-linejoin:round" fill="none" olab:comment="" olab:scope="Layer0.Plot0" class="Layer0 Layer Plot0 Plot"/>
		<polyline points="290,122 292,123 293,124 295,125 296,126 298,127 299,128 301,129 302,130 304,131 305,132 307,133 309,134" style="stroke: #76A3B5;stroke-width: 4;stroke-linecap:round;stroke-linejoin:round" fill="none" olab:comment="" olab:scope="Layer0.Plot0" class="Layer0 Layer Plot0 Plot"/>
		<polyline points="330,146 332,146 333,147 335,148 336,149 338,149 339,150 341,151 342,151 344,152 345,153 347,153 348,153" style="stroke: #76A3B5;stroke-width: 4;stroke-linecap:round;stroke-linejoin:round" fill="none" olab:comment="" olab:scope="Layer0.Plot0" class="Layer0 Layer Plot0 Plot"/>
		<polyline points="369,164 370,165 372,165 373,166 375,167 376,168 378,169 379,169 381,170 382,171 384,172" style="stroke: #76A3B5;stroke-width: 4;stroke-linecap:round;stroke-linejoin:round" fill="none" olab:comment="" olab:scope="Layer0.Plot0" class="Layer0 Layer Plot0 Plot"/>
		<polyline points="402,183 404,184 405,185 407,186 408,187 410,188 412,189 413,190 415,191 416,192 418,193" style="stroke: #76A3B5;stroke-width: 4;stroke-linecap:round;stroke-linejoin:round" fill="none" olab:comment="" olab:scope="Layer0.Plot0" class="Layer0 Layer Plot0 Plot"/>
		<polyline points="436,203 438,204 439,204 441,205 442,206 444,206 445,207 447,208 448,208 450,209 452,210 453,210 455,211" style="stroke: #76A3B5;stroke-width: 4;stroke-linecap:round;stroke-linejoin:round" fill="none" olab:comment="" olab:scope="Layer0.Plot0" class="Layer0 Layer Plot0 Plot"/>
		<polyline points="473,220 475,221 476,222 478,222 479,223 481,224 482,225 484,226 485,227 487,228 488,229 490,230 492,230" style="stroke: #76A3B5;stroke-width: 4;stroke-linecap:round;stroke-linejoin:round" fill="none" olab:comment="" olab:scope="Layer0.Plot0" class="Layer0 Layer Plot0 Plot"/>
		<polyline points="513,244 515,245 516,246 518,247 519,248 521,248 522,249 524,250 525,251 527,252" style="stroke: #76A3B5;stroke-width: 4;stroke-linecap:round;stroke-linejoin:round" fill="none" olab:comment="" olab:scope="Layer0.Plot0" class="Layer0 Layer Plot0 Plot"/>
		<polyline points="545,261 547,262 548,263 550,263 552,264 553,265 555,265 556,266 558,267 559,267 561,268" style="stroke: #76A3B5;stroke-width: 4;stroke-linecap:round;stroke-linejoin:round" fill="none" olab:comment="" olab:scope="Layer0.Plot0" class="Layer0 Layer Plot0 Plot"/>
		<polyline points="579,277 581,278 582,279 584,280 585,280 587,281 588,282 590,283 591,284 593,285 595,286" style="stroke: #76A3B5;stroke-width: 4;stroke-linecap:round;stroke-linejoin:round" fill="none" olab:comment="" olab:scope="Layer0.Plot0" class="Layer0 Layer Plot0 Plot"/>
		<polyline points="617,299 618,300 619,301 621,302 622,303 624,304 625,305 627,306 628,307 630,307 631,308 633,309 635,310" style="stroke: #76A3B5;stroke-width: 4;stroke-linecap:round;stroke-linejoin:round" fill="none" olab:comment="" olab:scope="Layer0.Plot0" class="Layer0 Layer Plot0 Plot"/>
		<polyline points="656,320 658,321 659,321 661,322 662,323 664,323 665,324 667,325 668,326 670,326" style="stroke: #76A3B5;stroke-width: 4;stroke-linecap:round;stroke-linejoin:round" fill="none" olab:comment="" olab:scope="Layer0.Plot0" class="Layer0 Layer Plot0 Plot"/>
		<polyline points="688,336 690,337 691,338 693,339 695,340 696,340 698,341 699,342 701,343 702,344 704,345" style="stroke: #76A3B5;stroke-width: 4;stroke-linecap:round;stroke-linejoin:round" fill="none" olab:comment="" olab:scope="Layer0.Plot0" class="Layer0 Layer Plot0 Plot"/>
		<polyline points="722,357 724,358 725,359 727,360 728,360 730,361 731,362 733,363 734,364 736,365 738,365" style="stroke: #76A3B5;stroke-width: 4;stroke-linecap:round;stroke-linejoin:round" fill="none" olab:comment="" olab:scope="Layer0.Plot0" class="Layer0 Layer Plot0 Plot"/>
		<polyline points="144,57 146,58 147,58 149,59 150,60 152,61 153,61 155,62 156,63 158,64 159,65 161,65 162,66 164,67 166,68 167,69 169,70 170,71 172,72 173,73 175,74 176,74 178,75 179,76 181,77 182,78 184,79 186,80 187,81 189,81 190,82 192,83 193,84 195,85 196,85 198,86 199,87 201,88 202,88 204,89 206,90 207,91 209,92 210,92 212,93 213,94 215,95 216,95 218,96 219,97 221,98 222,99 224,100 226,101 227,101 229,102 230,103 232,104 233,105 235,106 236,107 238,108 239,109 241,109 242,110 244,111 245,112 247,113 249,114 250,114 252,115 253,116 255,117 256,118 258,118 259,119 261,120 262,121 264,122 265,122 267,123 269,124 270,125 272,125 273,126 275,127 276,128 278,129 279,130 281,130 282,131 284,132 285,133 287,134 289,135 290,136 292,136 293,137 295,138 296,139 298,140 299,141 301,142 302,142 304,143 305,144 307,145 309,146 310,147 312,147 313,148 315,149 316,150 318,151 319,151 321,152 322,153 324,154 325,155 327,155 329,156 330,157 332,158 333,159 335,159 336,160 338,161 339,162 341,163 342,164 344,164 345,165 347,166 349,167 350,168 352,169 353,170 355,170 356,171 358,172 359,173 361,174 362,175 364,176 365,176 367,177 369,178 370,179 372,180 373,181 375,181 376,182 378,183 379,184 381,185 382,185 384,186 385,187 387,188 389,189 390,189 392,190 393,191 395,192 396,193 398,193 399,194 401,195 402,196 404,197 405,198 407,199 408,199 410,200 412,201 413,202 415,203 416,204 418,204 419,205 421,206 422,207 424,208 425,209 427,210 428,210 430,211 432,212 433,213 435,214 436,214 438,215 439,216 441,217 442,218 444,218 445,219 447,220 448,221 450,222 452,223 453,223 455,224 456,225 458,226 459,227 461,228 462,228 464,229 465,230 467,231 468,232 470,233 472,233 473,234 475,235 476,236 478,237 479,238 481,238 482,239 484,240 485,241 487,242 488,243 490,243 492,244 493,245 495,246 496,247 498,248 499,248 501,249 502,250 504,251 505,252 507,252 508,253 510,254 512,255 513,256 515,257 516,257 518,258 519,259 521,260 522,261 524,262 525,262 527,263 528,264 530,265 532,266 533,267 535,267 536,268 538,269 539,270 541,271 542,272 544,272 545,273 547,274 548,275 550,276 552,277 553,277 555,278 556,279 558,280 559,281 561,281 562,282 564,283 565,284 567,285 568,286 570,286 571,287 573,288 575,289 576,290 578,291 579,291 581,292 582,293 584,294 585,295 587,296 588,296 590,297 591,298 593,299 595,300 596,301 598,301 599,302 601,303 602,304 604,305 605,306 607,306 608,307 610,308 611,309 613,310 615,311 616,311 618,312 619,313 621,314 622,315 624,315 625,316 627,317 628,318 630,319 631,320 633,320 635,321 636,322 638,323 639,324 641,325 642,325 644,326 645,327 647,328 648,329 650,330 651,330 653,331 655,332 656,333 658,334 659,335 661,335 662,336 664,337 665,338 667,339 668,340 670,340 671,341 673,342 675,343 676,344 678,344 679,345 681,346 682,347 684,348 685,349 687,349 688,350 690,351 691,352 693,353 695,354 696,354 698,355 699,356 701,357 702,358 704,358 705,359 707,360 708,361 710,362 711,363 713,363 715,364 716,365 718,366 719,367 721,368 722,368 724,369 725,370 727,371 728,372 730,373 731,373 733,374 734,375 736,376 738,377 739,378 741,378 742,379 744,380 745,381 747,382 748,383 750,383 751,384 753,385 754,386 756,387 758,387 759,388" style="stroke: #1F4E79;stroke-width: 6;stroke-linecap:round;stroke-linejoin:round" fill="none" olab:comment="" olab:scope="Layer0.Plot1" class="Layer0 Layer Plot1 Plot"/>
		<circle cx="758" cy="387" r="2" fill="#C97B2A" fill-rule="evenodd" style="stroke: #C97B2A;stroke-width: 1" olab:comment="" olab:scope="Layer0.Plot2" class="Layer0 Layer Plot2 Plot" olab:data='{
   "tooltip" : "&lt;table class=\"tg\"&gt;&lt;tr&gt;&lt;td class=\"col1\"&gt;行:&lt;/td&gt;&lt;td class=\"col2\"&gt;1&lt;/td&gt;&lt;/tr&gt;&lt;tr&gt;&lt;td class=\"col1\"&gt;iteration:&lt;/td&gt;&lt;td class=\"col2\"&gt;2000&lt;/td&gt;&lt;/tr&gt;&lt;tr&gt;&lt;td class=\"col1\"&gt;log10_best_objective:&lt;/td&gt;&lt;td class=\"col2\"&gt;-2.45718741&lt;/td&gt;&lt;/tr&gt;&lt;/table&gt;",
   "X" : "2000",
   "Y" : "-2.4571874130000002"
}
'/>
	</g>
	<path d="M 144,36 L 796,36" style="stroke: black;stroke-width: 2;stroke-linecap:round;stroke-linejoin:round" fill="none" olab:comment="" olab:scope="Layer0" class="Layer0 Layer"/>
	<path d="M 796,36 L 796,450" style="stroke: black;stroke-width: 2;stroke-linecap:round;stroke-linejoin:round" fill="none" olab:comment="" olab:scope="Layer0" class="Layer0 Layer"/>
	<path d="M 796,450 L 144,450" style="stroke: black;stroke-width: 2;stroke-linecap:round;stroke-linejoin:round" fill="none" olab:comment="" olab:scope="Layer0" class="Layer0 Layer"/>
	<path d="M 144,450 L 144,36" style="stroke: black;stroke-width: 2;stroke-linecap:round;stroke-linejoin:round" fill="none" olab:comment="" olab:scope="Layer0" class="Layer0 Layer"/>
	<text x="137" dominant-baseline="auto" y="514" fill="black" font-family="Arial,'MS PGothic',SimSun" font-size="25" font-weight="400" olab:comment="" olab:scope="Layer0.Axis0.SubAxis0.TickLabel-Major" class="Layer0 Layer Axis0 Axis SubAxis0 SubAxis TickLabel Major">
		<tspan x="137" style="font-kerning:none">0</tspan>
	</text>
	<text x="246" dominant-baseline="auto" y="514" fill="black" font-family="Arial,'MS PGothic',SimSun" font-size="25" font-weight="400" olab:comment="" olab:scope="Layer0.Axis0.SubAxis0.TickLabel-Major" class="Layer0 Layer Axis0 Axis SubAxis0 SubAxis TickLabel Major">
		<tspan x="246" style="font-kerning:none">400</tspan>
	</text>
	<text x="369" dominant-baseline="auto" y="514" fill="black" font-family="Arial,'MS PGothic',SimSun" font-size="25" font-weight="400" olab:comment="" olab:scope="Layer0.Axis0.SubAxis0.TickLabel-Major" class="Layer0 Layer Axis0 Axis SubAxis0 SubAxis TickLabel Major">
		<tspan x="369" style="font-kerning:none">800</tspan>
	</text>
	<text x="485" dominant-baseline="auto" y="514" fill="black" font-family="Arial,'MS PGothic',SimSun" font-size="25" font-weight="400" olab:comment="" olab:scope="Layer0.Axis0.SubAxis0.TickLabel-Major" class="Layer0 Layer Axis0 Axis SubAxis0 SubAxis TickLabel Major">
		<tspan x="485" style="font-kerning:none">1200</tspan>
	</text>
	<text x="608" dominant-baseline="auto" y="514" fill="black" font-family="Arial,'MS PGothic',SimSun" font-size="25" font-weight="400" olab:comment="" olab:scope="Layer0.Axis0.SubAxis0.TickLabel-Major" class="Layer0 Layer Axis0 Axis SubAxis0 SubAxis TickLabel Major">
		<tspan x="608" style="font-kerning:none">1600</tspan>
	</text>
	<text x="731" dominant-baseline="auto" y="514" fill="black" font-family="Arial,'MS PGothic',SimSun" font-size="25" font-weight="400" olab:comment="" olab:scope="Layer0.Axis0.SubAxis0.TickLabel-Major" class="Layer0 Layer Axis0 Axis SubAxis0 SubAxis TickLabel Major">
		<tspan x="731" style="font-kerning:none">2000</tspan>
	</text>
	<text x="71" dominant-baseline="auto" y="428" fill="black" font-family="Arial,'MS PGothic',SimSun" font-size="25" font-weight="400" olab:comment="" olab:scope="Layer0.Axis1.SubAxis0.TickLabel-Major" class="Layer0 Layer Axis1 Axis SubAxis0 SubAxis TickLabel Major">
		<tspan x="71" style="font-kerning:none">−3</tspan>
	</text>
	<text x="71" dominant-baseline="auto" y="369" fill="black" font-family="Arial,'MS PGothic',SimSun" font-size="25" font-weight="400" olab:comment="" olab:scope="Layer0.Axis1.SubAxis0.TickLabel-Major" class="Layer0 Layer Axis1 Axis SubAxis0 SubAxis TickLabel Major">
		<tspan x="71" style="font-kerning:none">−2</tspan>
	</text>
	<text x="71" dominant-baseline="auto" y="310" fill="black" font-family="Arial,'MS PGothic',SimSun" font-size="25" font-weight="400" olab:comment="" olab:scope="Layer0.Axis1.SubAxis0.TickLabel-Major" class="Layer0 Layer Axis1 Axis SubAxis0 SubAxis TickLabel Major">
		<tspan x="71" style="font-kerning:none">−1</tspan>
	</text>
	<text x="86" dominant-baseline="auto" y="251" fill="black" font-family="Arial,'MS PGothic',SimSun" font-size="25" font-weight="400" olab:comment="" olab:scope="Layer0.Axis1.SubAxis0.TickLabel-Major" class="Layer0 Layer Axis1 Axis SubAxis0 SubAxis TickLabel Major">
		<tspan x="86" style="font-kerning:none">0</tspan>
	</text>
	<text x="86" dominant-baseline="auto" y="192" fill="black" font-family="Arial,'MS PGothic',SimSun" font-size="25" font-weight="400" olab:comment="" olab:scope="Layer0.Axis1.SubAxis0.TickLabel-Major" class="Layer0 Layer Axis1 Axis SubAxis0 SubAxis TickLabel Major">
		<tspan x="86" style="font-kerning:none">1</tspan>
	</text>
	<text x="86" dominant-baseline="auto" y="133" fill="black" font-family="Arial,'MS PGothic',SimSun" font-size="25" font-weight="400" olab:comment="" olab:scope="Layer0.Axis1.SubAxis0.TickLabel-Major" class="Layer0 Layer Axis1 Axis SubAxis0 SubAxis TickLabel Major">
		<tspan x="86" style="font-kerning:none">2</tspan>
	</text>
	<text x="86" dominant-baseline="auto" y="74" fill="black" font-family="Arial,'MS PGothic',SimSun" font-size="25" font-weight="400" olab:comment="" olab:scope="Layer0.Axis1.SubAxis0.TickLabel-Major" class="Layer0 Layer Axis1 Axis SubAxis0 SubAxis TickLabel Major">
		<tspan x="86" style="font-kerning:none">3</tspan>
	</text>
	<text x="536" dominant-baseline="auto" y="385" fill="#76A3B5" font-family="Arial,'MS PGothic',SimSun" font-size="18" font-weight="400" olab:comment="" olab:scope="Layer0" class="Layer0 Layer">
		<tspan x="536" style="white-space:pre;font-kerning:none" xml:space="preserve">Population mean</tspan>
	</text>
	<text x="609" dominant-baseline="auto" y="424" fill="#1F4E79" font-family="Arial,'MS PGothic',SimSun" font-size="18" font-weight="400" olab:comment="" olab:scope="Layer0" class="Layer0 Layer">
		<tspan x="609" style="white-space:pre;font-kerning:none" xml:space="preserve">Best objective</tspan>
	</text>
	<polyline points="0,0 0,0" style="stroke: #808080;stroke-width: 4;stroke-linecap:butt;stroke-linejoin:round" fill="none" olab:comment="" olab:scope="Layer0" class="Layer0 Layer"/>
	<text x="0" dominant-baseline="auto" y="0" fill="black" font-family="Arial,'MS PGothic',SimSun" font-size="27" font-weight="400" transform="matrix(-1.83698e-16 -1 0.999999 -1.83698e-16 51 360)" olab:comment="" olab:scope="Layer0.Axis1.SubAxis0.Title" class="Layer0 Layer Axis1 Axis SubAxis0 SubAxis Title">
		<tspan x="0" style="white-space:pre;font-kerning:none" xml:space="preserve">log10 objective gap</tspan>
	</text>
	<text x="421" dominant-baseline="auto" y="565" fill="black" font-family="Arial,'MS PGothic',SimSun" font-size="27" font-weight="400" olab:comment="" olab:scope="Layer0.Axis0.SubAxis0.Title" class="Layer0 Layer Axis0 Axis SubAxis0 SubAxis Title">
		<tspan x="421" style="font-kerning:none">Iteration</tspan>
	</text>
</svg>

